<svg viewBox="0 0 1000 1000" xmlns="http://www.w3.org/2000/svg">
<path d="M500,500 L500,420.4773" fill="transparent" stroke="rgb(255,255,0)" stroke-width="1"/>
<path d="M500,420.4773 L579.5227,420.4773" fill="transparent" stroke="rgb(255,255,0)" stroke-width="1"/>
<path d="M579.5227,420.4773 L579.5227,500" fill="transparent" stroke="rgb(255,255,0)" stroke-width="1"/>
<path d="M579.5227,500 L500,500" fill="transparent" stroke="rgb(255,255,0)" stroke-width="1"/>
<path d="M500,500 L517.0567,403.26666" fill="transparent" stroke="rgb(255,0,0)" stroke-width="1"/>
<path d="M517.0567,403.26666 L613.79004,420.32336" fill="transparent" stroke="rgb(255,0,0)" stroke-width="1"/>
<path d="M613.79004,420.32336 L596.73334,517.0567" fill="transparent" stroke="rgb(255,0,0)" stroke-width="1"/>
<path d="M596.73334,517.0567 L500.00003,499.99997" fill="transparent" stroke="rgb(255,0,0)" stroke-width="1"/>
<path d="M500.00003,499.99997 L536.09155,400.8394" fill="transparent" stroke="rgb(255,255,0)" stroke-width="1"/>
<path d="M536.09155,400.8394 L635.25214,436.93088" fill="transparent" stroke="rgb(255,255,0)" stroke-width="1"/>
<path d="M635.25214,436.93088 L599.16064,536.09143" fill="transparent" stroke="rgb(255,255,0)" stroke-width="1"/>
<path d="M599.16064,536.09143 L500.00006,499.99994" fill="transparent" stroke="rgb(255,255,0)" stroke-width="1"/>
<path d="M500.00006,499.99994 L555.6444,403.62106" fill="transparent" stroke="rgb(238,130,238)" stroke-width="1"/>
<path d="M555.6444,403.62106 L652.0233,459.26544" fill="transparent" stroke="rgb(238,130,238)" stroke-width="1"/>
<path d="M652.0233,459.26544 L596.3789,555.6443" fill="transparent" stroke="rgb(238,130,238)" stroke-width="1"/>
<path d="M596.3789,555.6443 L500.00006,499.99988" fill="transparent" stroke="rgb(238,130,238)" stroke-width="1"/>
<path d="M500.00006,499.99988 L546.5864,444.4804" fill="transparent" stroke="rgb(255,255,0)" stroke-width="1"/>
<path d="M546.5864,444.4804 L602.1059,491.06677" fill="transparent" stroke="rgb(255,255,0)" stroke-width="1"/>
<path d="M602.1059,491.06677 L555.51953,546.58624" fill="transparent" stroke="rgb(255,255,0)" stroke-width="1"/>
<path d="M555.51953,546.58624 L500.00006,499.99988" fill="transparent" stroke="rgb(255,255,0)" stroke-width="1"/>
<path d="M500.00006,499.99988 L646.3834,377.16968" fill="transparent" stroke="rgb(0,255,0)" stroke-width="1"/>
<path d="M646.3834,377.16968 L769.2136,523.55304" fill="transparent" stroke="rgb(0,255,0)" stroke-width="1"/>
<path d="M769.2136,523.55304 L622.83026,646.38324" fill="transparent" stroke="rgb(0,255,0)" stroke-width="1"/>
<path d="M622.83026,646.38324 L500.0001,499.99988" fill="transparent" stroke="rgb(0,255,0)" stroke-width="1"/>
<path d="M500.0001,499.99988 L537.08704,478.5877" fill="transparent" stroke="rgb(255,255,0)" stroke-width="1"/>
<path d="M537.08704,478.5877 L558.4992,515.6747" fill="transparent" stroke="rgb(255,255,0)" stroke-width="1"/>
<path d="M558.4992,515.6747 L521.41223,537.08685" fill="transparent" stroke="rgb(255,255,0)" stroke-width="1"/>
<path d="M521.41223,537.08685 L500.00006,499.99988" fill="transparent" stroke="rgb(255,255,0)" stroke-width="1"/>
<path d="M500.00006,499.99988 L609.8649,460.01236" fill="transparent" stroke="rgb(238,130,238)" stroke-width="1"/>
<path d="M609.8649,460.01236 L649.8524,569.8772" fill="transparent" stroke="rgb(238,130,238)" stroke-width="1"/>
<path d="M649.8524,569.8772 L539.98755,609.86475" fill="transparent" stroke="rgb(238,130,238)" stroke-width="1"/>
<path d="M539.98755,609.86475 L500,499.9999" fill="transparent" stroke="rgb(238,130,238)" stroke-width="1"/>
<path d="M500,499.9999 L610.14655,480.57813" fill="transparent" stroke="rgb(255,165,0)" stroke-width="1"/>
<path d="M610.14655,480.57813 L629.56836,590.7247" fill="transparent" stroke="rgb(255,165,0)" stroke-width="1"/>
<path d="M629.56836,590.7247 L519.4218,610.1465" fill="transparent" stroke="rgb(255,165,0)" stroke-width="1"/>
<path d="M519.4218,610.1465 L500.00003,499.99994" fill="transparent" stroke="rgb(255,165,0)" stroke-width="1"/>
<path d="M500.00003,499.99994 L522.4531,499.99994" fill="transparent" stroke="rgb(0,0,255)" stroke-width="1"/>
<path d="M522.4531,499.99994 L522.4531,522.45306" fill="transparent" stroke="rgb(0,0,255)" stroke-width="1"/>
<path d="M522.4531,522.45306 L500,522.45306" fill="transparent" stroke="rgb(0,0,255)" stroke-width="1"/>
<path d="M500,522.45306 L500,499.99994" fill="transparent" stroke="rgb(0,0,255)" stroke-width="1"/>
<path d="M500,499.99994 L520.8249,503.67194" fill="transparent" stroke="rgb(255,0,0)" stroke-width="1"/>
<path d="M520.8249,503.67194 L517.1529,524.4968" fill="transparent" stroke="rgb(255,0,0)" stroke-width="1"/>
<path d="M517.1529,524.4968 L496.328,520.8248" fill="transparent" stroke="rgb(255,0,0)" stroke-width="1"/>
<path d="M496.328,520.8248 L500,499.99994" fill="transparent" stroke="rgb(255,0,0)" stroke-width="1"/>
<path d="M500,499.99994 L636.6842,549.7489" fill="transparent" stroke="rgb(255,165,0)" stroke-width="1"/>
<path d="M636.6842,549.7489 L586.93524,686.4331" fill="transparent" stroke="rgb(255,165,0)" stroke-width="1"/>
<path d="M586.93524,686.4331 L450.25104,636.68414" fill="transparent" stroke="rgb(255,165,0)" stroke-width="1"/>
<path d="M450.25104,636.68414 L500.00003,499.99994" fill="transparent" stroke="rgb(255,165,0)" stroke-width="1"/>
<path d="M500.00003,499.99994 L564.32434,537.13763" fill="transparent" stroke="rgb(0,255,0)" stroke-width="1"/>
<path d="M564.32434,537.13763 L527.18665,601.4619" fill="transparent" stroke="rgb(0,255,0)" stroke-width="1"/>
<path d="M527.18665,601.4619 L462.86234,564.3242" fill="transparent" stroke="rgb(0,255,0)" stroke-width="1"/>
<path d="M462.86234,564.3242 L500,499.9999" fill="transparent" stroke="rgb(0,255,0)" stroke-width="1"/>
<path d="M500,499.9999 L508.2748,506.9433" fill="transparent" stroke="rgb(0,0,255)" stroke-width="1"/>
<path d="M508.2748,506.9433 L501.33142,515.2181" fill="transparent" stroke="rgb(0,0,255)" stroke-width="1"/>
<path d="M501.33142,515.2181 L493.0566,508.2747" fill="transparent" stroke="rgb(0,0,255)" stroke-width="1"/>
<path d="M493.0566,508.2747 L500,499.99988" fill="transparent" stroke="rgb(0,0,255)" stroke-width="1"/>
<path d="M500,499.99988 L515.2533,518.17804" fill="transparent" stroke="rgb(255,255,0)" stroke-width="1"/>
<path d="M515.2533,518.17804 L497.07513,533.43134" fill="transparent" stroke="rgb(255,255,0)" stroke-width="1"/>
<path d="M497.07513,533.43134 L481.82187,515.2532" fill="transparent" stroke="rgb(255,255,0)" stroke-width="1"/>
<path d="M481.82187,515.2532 L500.00003,499.99988" fill="transparent" stroke="rgb(255,255,0)" stroke-width="1"/>
<path d="M500.00003,499.99988 L513.75696,523.8276" fill="transparent" stroke="rgb(255,255,0)" stroke-width="1"/>
<path d="M513.75696,523.8276 L489.92923,537.58453" fill="transparent" stroke="rgb(255,255,0)" stroke-width="1"/>
<path d="M489.92923,537.58453 L476.1723,513.75684" fill="transparent" stroke="rgb(255,255,0)" stroke-width="1"/>
<path d="M476.1723,513.75684 L500.00003,499.9999" fill="transparent" stroke="rgb(255,255,0)" stroke-width="1"/>
<path d="M500.00003,499.9999 L560.8307,667.13086" fill="transparent" stroke="rgb(0,255,0)" stroke-width="1"/>
<path d="M560.8307,667.13086 L393.6997,727.96155" fill="transparent" stroke="rgb(0,255,0)" stroke-width="1"/>
<path d="M393.6997,727.96155 L332.86896,560.83057" fill="transparent" stroke="rgb(0,255,0)" stroke-width="1"/>
<path d="M332.86896,560.83057 L499.99994,499.99988" fill="transparent" stroke="rgb(0,255,0)" stroke-width="1"/>
<path d="M499.99994,499.99988 L508.04193,545.6082" fill="transparent" stroke="rgb(0,255,0)" stroke-width="1"/>
<path d="M508.04193,545.6082 L462.4336,553.6502" fill="transparent" stroke="rgb(0,255,0)" stroke-width="1"/>
<path d="M462.4336,553.6502 L454.39163,508.04187" fill="transparent" stroke="rgb(0,255,0)" stroke-width="1"/>
<path d="M454.39163,508.04187 L499.99997,499.9999" fill="transparent" stroke="rgb(0,255,0)" stroke-width="1"/>
<path d="M499.99997,499.9999 L499.99997,516.382" fill="transparent" stroke="rgb(238,130,238)" stroke-width="1"/>
<path d="M499.99997,516.382 L483.61786,516.382" fill="transparent" stroke="rgb(238,130,238)" stroke-width="1"/>
<path d="M483.61786,516.382 L483.61786,499.9999" fill="transparent" stroke="rgb(238,130,238)" stroke-width="1"/>
<path d="M483.61786,499.9999 L499.99997,499.9999" fill="transparent" stroke="rgb(238,130,238)" stroke-width="1"/>
<path d="M499.99997,499.9999 L477.55914,627.26794" fill="transparent" stroke="rgb(255,165,0)" stroke-width="1"/>
<path d="M477.55914,627.26794 L350.29108,604.8271" fill="transparent" stroke="rgb(255,165,0)" stroke-width="1"/>
<path d="M350.29108,604.8271 L372.73187,477.55902" fill="transparent" stroke="rgb(255,165,0)" stroke-width="1"/>
<path d="M372.73187,477.55902 L499.99994,499.99982" fill="transparent" stroke="rgb(255,165,0)" stroke-width="1"/>
<path d="M499.99994,499.99982 L449.42908,638.94214" fill="transparent" stroke="rgb(255,165,0)" stroke-width="1"/>
<path d="M449.42908,638.94214 L310.48676,588.3713" fill="transparent" stroke="rgb(255,165,0)" stroke-width="1"/>
<path d="M310.48676,588.3713 L361.05762,449.42896" fill="transparent" stroke="rgb(255,165,0)" stroke-width="1"/>
<path d="M361.05762,449.42896 L499.99994,499.99982" fill="transparent" stroke="rgb(255,165,0)" stroke-width="1"/>
<path d="M499.99994,499.99982 L498.88184,501.93643" fill="transparent" stroke="rgb(255,0,0)" stroke-width="1"/>
<path d="M498.88184,501.93643 L496.94522,500.81833" fill="transparent" stroke="rgb(255,0,0)" stroke-width="1"/>
<path d="M496.94522,500.81833 L498.06332,498.8817" fill="transparent" stroke="rgb(255,0,0)" stroke-width="1"/>
<path d="M498.06332,498.8817 L499.99994,499.99982" fill="transparent" stroke="rgb(255,0,0)" stroke-width="1"/>
<path d="M499.99994,499.99982 L399.90338,619.2903" fill="transparent" stroke="rgb(0,255,0)" stroke-width="1"/>
<path d="M399.90338,619.2903 L280.61295,519.1937" fill="transparent" stroke="rgb(0,255,0)" stroke-width="1"/>
<path d="M280.61295,519.1937 L380.7095,399.9033" fill="transparent" stroke="rgb(0,255,0)" stroke-width="1"/>
<path d="M380.7095,399.9033 L499.99994,499.99985" fill="transparent" stroke="rgb(0,255,0)" stroke-width="1"/>
<path d="M499.99994,499.99985 L454.43677,538.2319" fill="transparent" stroke="rgb(238,130,238)" stroke-width="1"/>
<path d="M454.43677,538.2319 L416.20474,492.6687" fill="transparent" stroke="rgb(238,130,238)" stroke-width="1"/>
<path d="M416.20474,492.6687 L461.7679,454.43665" fill="transparent" stroke="rgb(238,130,238)" stroke-width="1"/>
<path d="M461.7679,454.43665 L499.99994,499.99982" fill="transparent" stroke="rgb(238,130,238)" stroke-width="1"/>
<path d="M499.99994,499.99982 L462.4169,521.69836" fill="transparent" stroke="rgb(0,255,0)" stroke-width="1"/>
<path d="M462.4169,521.69836 L440.71835,484.11533" fill="transparent" stroke="rgb(0,255,0)" stroke-width="1"/>
<path d="M440.71835,484.11533 L478.3014,462.41675" fill="transparent" stroke="rgb(0,255,0)" stroke-width="1"/>
<path d="M478.3014,462.41675 L499.99994,499.9998" fill="transparent" stroke="rgb(0,255,0)" stroke-width="1"/>
<path d="M499.99994,499.9998 L450.13306,518.14984" fill="transparent" stroke="rgb(0,255,0)" stroke-width="1"/>
<path d="M450.13306,518.14984 L431.98297,468.28296" fill="transparent" stroke="rgb(0,255,0)" stroke-width="1"/>
<path d="M431.98297,468.28296 L481.84985,450.1329" fill="transparent" stroke="rgb(0,255,0)" stroke-width="1"/>
<path d="M481.84985,450.1329 L499.9999,499.9998" fill="transparent" stroke="rgb(0,255,0)" stroke-width="1"/>
<path d="M499.9999,499.9998 L414.63184,515.0525" fill="transparent" stroke="rgb(255,0,0)" stroke-width="1"/>
<path d="M414.63184,515.0525 L399.57916,429.68442" fill="transparent" stroke="rgb(255,0,0)" stroke-width="1"/>
<path d="M399.57916,429.68442 L484.94724,414.6317" fill="transparent" stroke="rgb(255,0,0)" stroke-width="1"/>
<path d="M484.94724,414.6317 L499.99994,499.9998" fill="transparent" stroke="rgb(255,0,0)" stroke-width="1"/>
<path d="M499.99994,499.9998 L354.36557,499.9998" fill="transparent" stroke="rgb(0,255,0)" stroke-width="1"/>
<path d="M354.36557,499.9998 L354.36557,354.36542" fill="transparent" stroke="rgb(0,255,0)" stroke-width="1"/>
<path d="M354.36557,354.36542 L499.99994,354.36542" fill="transparent" stroke="rgb(0,255,0)" stroke-width="1"/>
<path d="M499.99994,354.36542 L499.99994,499.9998" fill="transparent" stroke="rgb(0,255,0)" stroke-width="1"/>
<path d="M499.99994,499.9998 L449.7986,491.14792" fill="transparent" stroke="rgb(255,165,0)" stroke-width="1"/>
<path d="M449.7986,491.14792 L458.65045,440.9466" fill="transparent" stroke="rgb(255,165,0)" stroke-width="1"/>
<path d="M458.65045,440.9466 L508.8518,449.79843" fill="transparent" stroke="rgb(255,165,0)" stroke-width="1"/>
<path d="M508.8518,449.79843 L499.99994,499.99976" fill="transparent" stroke="rgb(255,165,0)" stroke-width="1"/>
<path d="M499.99994,499.99976 L490.3249,496.47833" fill="transparent" stroke="rgb(255,0,0)" stroke-width="1"/>
<path d="M490.3249,496.47833 L493.8463,486.80328" fill="transparent" stroke="rgb(255,0,0)" stroke-width="1"/>
<path d="M493.8463,486.80328 L503.52136,490.3247" fill="transparent" stroke="rgb(255,0,0)" stroke-width="1"/>
<path d="M503.52136,490.3247 L499.99994,499.99976" fill="transparent" stroke="rgb(255,0,0)" stroke-width="1"/>
<path d="M499.99994,499.99976 L400.99365,442.8384" fill="transparent" stroke="rgb(255,0,0)" stroke-width="1"/>
<path d="M400.99365,442.8384 L458.15497,343.83212" fill="transparent" stroke="rgb(255,0,0)" stroke-width="1"/>
<path d="M458.15497,343.83212 L557.16125,400.99344" fill="transparent" stroke="rgb(255,0,0)" stroke-width="1"/>
<path d="M557.16125,400.99344 L499.99994,499.9997" fill="transparent" stroke="rgb(255,0,0)" stroke-width="1"/>
<path d="M499.99994,499.9997 L481.905,484.81622" fill="transparent" stroke="rgb(0,255,0)" stroke-width="1"/>
<path d="M481.905,484.81622 L497.08847,466.72128" fill="transparent" stroke="rgb(0,255,0)" stroke-width="1"/>
<path d="M497.08847,466.72128 L515.1834,481.90475" fill="transparent" stroke="rgb(0,255,0)" stroke-width="1"/>
<path d="M515.1834,481.90475 L499.99994,499.9997" fill="transparent" stroke="rgb(0,255,0)" stroke-width="1"/>
<path d="M499.99994,499.9997 L454.06433,445.25574" fill="transparent" stroke="rgb(255,0,0)" stroke-width="1"/>
<path d="M454.06433,445.25574 L508.80826,399.32013" fill="transparent" stroke="rgb(255,0,0)" stroke-width="1"/>
<path d="M508.80826,399.32013 L554.7439,454.0641" fill="transparent" stroke="rgb(255,0,0)" stroke-width="1"/>
<path d="M554.7439,454.0641 L499.99994,499.9997" fill="transparent" stroke="rgb(255,0,0)" stroke-width="1"/>
<path d="M499.99994,499.9997 L485.40326,474.71747" fill="transparent" stroke="rgb(255,0,0)" stroke-width="1"/>
<path d="M485.40326,474.71747 L510.6855,460.12076" fill="transparent" stroke="rgb(255,0,0)" stroke-width="1"/>
<path d="M510.6855,460.12076 L525.28217,485.40298" fill="transparent" stroke="rgb(255,0,0)" stroke-width="1"/>
<path d="M525.28217,485.40298 L499.99994,499.9997" fill="transparent" stroke="rgb(255,0,0)" stroke-width="1"/>
<path d="M499.99994,499.9997 L466.33527,407.50684" fill="transparent" stroke="rgb(0,255,0)" stroke-width="1"/>
<path d="M466.33527,407.50684 L558.8281,373.8422" fill="transparent" stroke="rgb(0,255,0)" stroke-width="1"/>
<path d="M558.8281,373.8422 L592.49274,466.33505" fill="transparent" stroke="rgb(0,255,0)" stroke-width="1"/>
<path d="M592.49274,466.33505 L499.99988,499.9997" fill="transparent" stroke="rgb(0,255,0)" stroke-width="1"/>
<path d="M499.99988,499.9997 L475.3439,360.16852" fill="transparent" stroke="rgb(255,255,0)" stroke-width="1"/>
<path d="M475.3439,360.16852 L615.17505,335.5125" fill="transparent" stroke="rgb(255,255,0)" stroke-width="1"/>
<path d="M615.17505,335.5125 L639.83105,475.3437" fill="transparent" stroke="rgb(255,255,0)" stroke-width="1"/>
<path d="M639.83105,475.3437 L499.99988,499.9997" fill="transparent" stroke="rgb(255,255,0)" stroke-width="1"/>
</svg>
